# Blender 3.3.1
# www.blender.org
o Cube
v 0.488745 -0.488745 0.488745
v 0.488745 -0.488745 -0.488745
v -0.488745 -0.488745 0.488745
v -0.488745 -0.488745 -0.488745
v 0.488745 0.488745 0.488745
v 0.488745 0.488745 -0.488745
v -0.488745 0.488745 0.488745
v -0.488745 0.488745 -0.488745
vn 0.6667 0.3333 0.6667
vn -0.6667 -0.3333 0.6667
vn 0.4082 -0.8165 0.4082
vn -0.6667 0.3333 -0.6667
vn -0.4082 -0.8165 -0.4082
vn -0.4082 0.8165 0.4082
vn 0.4082 0.8165 -0.4082
vn -0.6667 0.3333 -0.6666
vn 0.6667 -0.3333 -0.6667
vn 0.6667 -0.3333 -0.6666
vn 0.6667 0.3333 0.6666
vn -0.6667 -0.3333 0.6666
vt 0.625000 0.500000
vt 0.375000 0.500000
vt 0.625000 0.750000
vt 0.375000 0.750000
vt 0.875000 0.500000
vt 0.625000 0.250000
vt 0.125000 0.500000
vt 0.375000 0.250000
vt 0.875000 0.750000
vt 0.625000 1.000000
vt 0.625000 0.000000
vt 0.375000 0.000000
vt 0.375000 1.000000
vt 0.125000 0.750000
s 0
f 5/5/1 3/3/2 1/1/3
f 3/3/2 8/13/4 4/4/5
f 7/11/6 6/8/7 8/12/8
f 2/2/9 8/14/4 6/7/7
f 1/1/3 4/4/5 2/2/10
f 5/6/1 2/2/9 6/8/7
f 5/5/1 7/9/6 3/3/2
f 3/3/2 7/10/6 8/13/4
f 7/11/6 5/6/11 6/8/7
f 2/2/9 4/4/5 8/14/4
f 1/1/3 3/3/12 4/4/5
f 5/6/1 1/1/3 2/2/9
